<svg width="1159" height="678" xmlns="http://www.w3.org/2000/svg"><g><path d="M-300,-95L-237,431L-73,315Z" fill="#d6ecfd" stroke="#d6ecfd"/><path d="M-300,-95L-73,315L62,168Z" fill="#f1f8ff" stroke="#f1f8ff"/><path d="M-300,-95L62,168L119,-228Z" fill="#fdfafd" stroke="#fdfafd"/><path d="M119,-228L62,168L435,29Z" fill="#e1e6f1" stroke="#e1e6f1"/><path d="M119,-228L435,29L461,-74Z" fill="#cdddec" stroke="#cdddec"/><path d="M119,-228L461,-74L1125,-266Z" fill="#a9cee3" stroke="#a9cee3"/><path d="M461,-74L435,29L794,240Z" fill="#a3cbe4" stroke="#a3cbe4"/><path d="M461,-74L794,240L893,-118Z" fill="#92c3dd" stroke="#92c3dd"/><path d="M461,-74L893,-118L1125,-266Z" fill="#8ab8d1" stroke="#8ab8d1"/><path d="M893,-118L794,240L1214,193Z" fill="#74a2c2" stroke="#74a2c2"/><path d="M893,-118L1214,193L1125,-266Z" fill="#809db6" stroke="#809db6"/><path d="M1125,-266L1214,193L1547,-226Z" fill="#80859f" stroke="#80859f"/><path d="M1547,-226L1214,193L1421,204Z" fill="#797d95" stroke="#797d95"/><path d="M1547,-226L1421,204L1393,569Z" fill="#62728d" stroke="#62728d"/><path d="M1547,-226L1393,569L1399,812Z" fill="#215683" stroke="#215683"/><path d="M-73,315L-237,431L112,369Z" fill="#a5d5f2" stroke="#a5d5f2"/><path d="M-73,315L112,369L62,168Z" fill="#b6d8f4" stroke="#b6d8f4"/><path d="M62,168L112,369L435,29Z" fill="#c1d8f0" stroke="#c1d8f0"/><path d="M435,29L112,369L399,654Z" fill="#7db9e3" stroke="#7db9e3"/><path d="M435,29L399,654L794,240Z" fill="#67b0de" stroke="#67b0de"/><path d="M794,240L399,654L762,708Z" fill="#2f80b7" stroke="#2f80b7"/><path d="M794,240L762,708L912,579Z" fill="#1f76ad" stroke="#1f76ad"/><path d="M794,240L912,579L1214,193Z" fill="#3084b8" stroke="#3084b8"/><path d="M1214,193L912,579L1275,556Z" fill="#18629a" stroke="#18629a"/><path d="M1214,193L1275,556L1421,204Z" fill="#366397" stroke="#366397"/><path d="M1421,204L1275,556L1393,569Z" fill="#184c82" stroke="#184c82"/><path d="M-237,431L-53,994L256,746Z" fill="#8186a8" stroke="#8186a8"/><path d="M-237,431L256,746L112,369Z" fill="#87afd3" stroke="#87afd3"/><path d="M112,369L256,746L399,654Z" fill="#698eb9" stroke="#698eb9"/><path d="M399,654L256,746L444,743Z" fill="#516b9a" stroke="#516b9a"/><path d="M399,654L444,743L762,708Z" fill="#376397" stroke="#376397"/><path d="M912,579L762,708L1075,861Z" fill="#0b3d76" stroke="#0b3d76"/><path d="M912,579L1075,861L1275,556Z" fill="#0a366f" stroke="#0a366f"/><path d="M1275,556L1075,861L1399,812Z" fill="#06134d" stroke="#06134d"/><path d="M1275,556L1399,812L1393,569Z" fill="#0c1f57" stroke="#0c1f57"/><path d="M-53,994L1075,861L444,743Z" fill="#365374" stroke="#365374"/><path d="M-53,994L444,743L256,746Z" fill="#616687" stroke="#616687"/><path d="M444,743L1075,861L762,708Z" fill="#14427b" stroke="#14427b"/></g></svg>