<svg width="1280" height="705" xmlns="http://www.w3.org/2000/svg"><g><path d="M-130,-72L-128,419L-129,55Z" fill="#f1f8ff" stroke="#f1f8ff" fill-opacity="1" stroke-opacity="1"/><path d="M-130,-72L-129,55L84,-36Z" fill="#fefbfd" stroke="#fefbfd" fill-opacity="1" stroke-opacity="1"/><path d="M-130,-72L84,-36L234,-128Z" fill="#f2f2f8" stroke="#f2f2f8" fill-opacity="1" stroke-opacity="1"/><path d="M84,-36L-129,55L44,112Z" fill="#f4f4fb" stroke="#f4f4fb" fill-opacity="1" stroke-opacity="1"/><path d="M84,-36L44,112L279,106Z" fill="#e4eaf5" stroke="#e4eaf5" fill-opacity="1" stroke-opacity="1"/><path d="M84,-36L279,106L234,-128Z" fill="#e4e8f3" stroke="#e4e8f3" fill-opacity="1" stroke-opacity="1"/><path d="M234,-128L279,106L363,-43Z" fill="#d9e2ef" stroke="#d9e2ef" fill-opacity="1" stroke-opacity="1"/><path d="M234,-128L363,-43L545,-107Z" fill="#ccdcec" stroke="#ccdcec" fill-opacity="1" stroke-opacity="1"/><path d="M234,-128L545,-107L1155,-132Z" fill="#a7cde3" stroke="#a7cde3" fill-opacity="1" stroke-opacity="1"/><path d="M363,-43L279,106L356,88Z" fill="#ceddee" stroke="#ceddee" fill-opacity="1" stroke-opacity="1"/><path d="M363,-43L356,88L565,66Z" fill="#c2d8ea" stroke="#c2d8ea" fill-opacity="1" stroke-opacity="1"/><path d="M363,-43L565,66L545,-107Z" fill="#bdd6e8" stroke="#bdd6e8" fill-opacity="1" stroke-opacity="1"/><path d="M545,-107L565,66L644,-55Z" fill="#afd0e5" stroke="#afd0e5" fill-opacity="1" stroke-opacity="1"/><path d="M545,-107L644,-55L880,-62Z" fill="#a0cae1" stroke="#a0cae1" fill-opacity="1" stroke-opacity="1"/><path d="M545,-107L880,-62L982,-85Z" fill="#93c2db" stroke="#93c2db" fill-opacity="1" stroke-opacity="1"/><path d="M545,-107L982,-85L1155,-132Z" fill="#8cb9d3" stroke="#8cb9d3" fill-opacity="1" stroke-opacity="1"/><path d="M644,-55L565,66L717,74Z" fill="#a4cbe3" stroke="#a4cbe3" fill-opacity="1" stroke-opacity="1"/><path d="M644,-55L717,74L880,-62Z" fill="#98c7df" stroke="#98c7df" fill-opacity="1" stroke-opacity="1"/><path d="M880,-62L717,74L872,92Z" fill="#8ebed9" stroke="#8ebed9" fill-opacity="1" stroke-opacity="1"/><path d="M880,-62L872,92L982,-85Z" fill="#8ab8d1" stroke="#8ab8d1" fill-opacity="1" stroke-opacity="1"/><path d="M982,-85L872,92L1020,117Z" fill="#82b1cd" stroke="#82b1cd" fill-opacity="1" stroke-opacity="1"/><path d="M982,-85L1020,117L1120,81Z" fill="#7ca9c5" stroke="#7ca9c5" fill-opacity="1" stroke-opacity="1"/><path d="M982,-85L1120,81L1155,-132Z" fill="#80a7c0" stroke="#80a7c0" fill-opacity="1" stroke-opacity="1"/><path d="M1155,-132L1120,81L1272,-77Z" fill="#809db7" stroke="#809db7" fill-opacity="1" stroke-opacity="1"/><path d="M1155,-132L1272,-77L1454,-56Z" fill="#8092ac" stroke="#8092ac" fill-opacity="1" stroke-opacity="1"/><path d="M1272,-77L1120,81L1252,100Z" fill="#7c98b4" stroke="#7c98b4" fill-opacity="1" stroke-opacity="1"/><path d="M1272,-77L1252,100L1375,106Z" fill="#7b8fac" stroke="#7b8fac" fill-opacity="1" stroke-opacity="1"/><path d="M1272,-77L1375,106L1454,-56Z" fill="#808ba5" stroke="#808ba5" fill-opacity="1" stroke-opacity="1"/><path d="M1454,-56L1375,106L1472,227Z" fill="#76809f" stroke="#76809f" fill-opacity="1" stroke-opacity="1"/><path d="M-129,55L-128,419L-112,279Z" fill="#cee9fc" stroke="#cee9fc" fill-opacity="1" stroke-opacity="1"/><path d="M-129,55L-112,279L44,112Z" fill="#edf3fd" stroke="#edf3fd" fill-opacity="1" stroke-opacity="1"/><path d="M44,112L-112,279L44,275Z" fill="#d1e5f9" stroke="#d1e5f9" fill-opacity="1" stroke-opacity="1"/><path d="M44,112L44,275L229,173Z" fill="#d1e1f5" stroke="#d1e1f5" fill-opacity="1" stroke-opacity="1"/><path d="M44,112L229,173L279,106Z" fill="#d8e2f3" stroke="#d8e2f3" fill-opacity="1" stroke-opacity="1"/><path d="M279,106L229,173L383,190Z" fill="#c5d8ee" stroke="#c5d8ee" fill-opacity="1" stroke-opacity="1"/><path d="M279,106L383,190L356,88Z" fill="#c5d8ed" stroke="#c5d8ed" fill-opacity="1" stroke-opacity="1"/><path d="M356,88L383,190L565,66Z" fill="#b9d3ea" stroke="#b9d3ea" fill-opacity="1" stroke-opacity="1"/><path d="M565,66L383,190L525,245Z" fill="#a6cbe7" stroke="#a6cbe7" fill-opacity="1" stroke-opacity="1"/><path d="M565,66L525,245L717,74Z" fill="#9fc8e4" stroke="#9fc8e4" fill-opacity="1" stroke-opacity="1"/><path d="M717,74L525,245L733,270Z" fill="#85bde1" stroke="#85bde1" fill-opacity="1" stroke-opacity="1"/><path d="M717,74L733,270L816,249Z" fill="#77b7de" stroke="#77b7de" fill-opacity="1" stroke-opacity="1"/><path d="M717,74L816,249L872,92Z" fill="#84bbdc" stroke="#84bbdc" fill-opacity="1" stroke-opacity="1"/><path d="M872,92L816,249L938,233Z" fill="#6fadd3" stroke="#6fadd3" fill-opacity="1" stroke-opacity="1"/><path d="M872,92L938,233L1020,117Z" fill="#77acce" stroke="#77acce" fill-opacity="1" stroke-opacity="1"/><path d="M1020,117L938,233L1143,202Z" fill="#659ec4" stroke="#659ec4" fill-opacity="1" stroke-opacity="1"/><path d="M1020,117L1143,202L1120,81Z" fill="#729fc0" stroke="#729fc0" fill-opacity="1" stroke-opacity="1"/><path d="M1120,81L1143,202L1252,100Z" fill="#7297b8" stroke="#7297b8" fill-opacity="1" stroke-opacity="1"/><path d="M1252,100L1143,202L1288,256Z" fill="#638bb1" stroke="#638bb1" fill-opacity="1" stroke-opacity="1"/><path d="M1252,100L1288,256L1375,106Z" fill="#6d88ab" stroke="#6d88ab" fill-opacity="1" stroke-opacity="1"/><path d="M1375,106L1288,256L1472,227Z" fill="#607ba3" stroke="#607ba3" fill-opacity="1" stroke-opacity="1"/><path d="M-112,279L-128,419L44,275Z" fill="#b7dbf6" stroke="#b7dbf6" fill-opacity="1" stroke-opacity="1"/><path d="M44,275L-128,419L85,387Z" fill="#a6d2f1" stroke="#a6d2f1" fill-opacity="1" stroke-opacity="1"/><path d="M44,275L85,387L176,328Z" fill="#a4ceef" stroke="#a4ceef" fill-opacity="1" stroke-opacity="1"/><path d="M44,275L176,328L229,173Z" fill="#b6d4f1" stroke="#b6d4f1" fill-opacity="1" stroke-opacity="1"/><path d="M229,173L176,328L383,190Z" fill="#b3d0ee" stroke="#b3d0ee" fill-opacity="1" stroke-opacity="1"/><path d="M383,190L176,328L388,409Z" fill="#93c2e8" stroke="#93c2e8" fill-opacity="1" stroke-opacity="1"/><path d="M383,190L388,409L525,245Z" fill="#8bbee6" stroke="#8bbee6" fill-opacity="1" stroke-opacity="1"/><path d="M525,245L388,409L526,414Z" fill="#6db2df" stroke="#6db2df" fill-opacity="1" stroke-opacity="1"/><path d="M525,245L526,414L616,342Z" fill="#69b1de" stroke="#69b1de" fill-opacity="1" stroke-opacity="1"/><path d="M525,245L616,342L733,270Z" fill="#6eb2df" stroke="#6eb2df" fill-opacity="1" stroke-opacity="1"/><path d="M733,270L616,342L782,339Z" fill="#58aada" stroke="#58aada" fill-opacity="1" stroke-opacity="1"/><path d="M733,270L782,339L816,249Z" fill="#59a9d9" stroke="#59a9d9" fill-opacity="1" stroke-opacity="1"/><path d="M816,249L782,339L916,360Z" fill="#4ba0d2" stroke="#4ba0d2" fill-opacity="1" stroke-opacity="1"/><path d="M816,249L916,360L938,233Z" fill="#529fcf" stroke="#529fcf" fill-opacity="1" stroke-opacity="1"/><path d="M938,233L916,360L1090,346Z" fill="#4192c4" stroke="#4192c4" fill-opacity="1" stroke-opacity="1"/><path d="M938,233L1090,346L1143,202Z" fill="#4c92c0" stroke="#4c92c0" fill-opacity="1" stroke-opacity="1"/><path d="M1143,202L1090,346L1288,256Z" fill="#4a85b4" stroke="#4a85b4" fill-opacity="1" stroke-opacity="1"/><path d="M1288,256L1090,346L1318,342Z" fill="#3b79ac" stroke="#3b79ac" fill-opacity="1" stroke-opacity="1"/><path d="M1288,256L1318,342L1407,341Z" fill="#3c70a2" stroke="#3c70a2" fill-opacity="1" stroke-opacity="1"/><path d="M1288,256L1407,341L1472,227Z" fill="#486f9f" stroke="#486f9f" fill-opacity="1" stroke-opacity="1"/><path d="M1472,227L1407,341L1466,527Z" fill="#2c5e94" stroke="#2c5e94" fill-opacity="1" stroke-opacity="1"/><path d="M-128,419L-115,559L19,529Z" fill="#95bfdf" stroke="#95bfdf" fill-opacity="1" stroke-opacity="1"/><path d="M-128,419L19,529L85,387Z" fill="#92c7e9" stroke="#92c7e9" fill-opacity="1" stroke-opacity="1"/><path d="M85,387L19,529L198,474Z" fill="#86bbe0" stroke="#86bbe0" fill-opacity="1" stroke-opacity="1"/><path d="M85,387L198,474L176,328Z" fill="#8bc3e8" stroke="#8bc3e8" fill-opacity="1" stroke-opacity="1"/><path d="M176,328L198,474L388,409Z" fill="#7ebbe4" stroke="#7ebbe4" fill-opacity="1" stroke-opacity="1"/><path d="M388,409L198,474L335,503Z" fill="#6fadd8" stroke="#6fadd8" fill-opacity="1" stroke-opacity="1"/><path d="M388,409L335,503L504,571Z" fill="#5ea0ce" stroke="#5ea0ce" fill-opacity="1" stroke-opacity="1"/><path d="M388,409L504,571L526,414Z" fill="#57a2d2" stroke="#57a2d2" fill-opacity="1" stroke-opacity="1"/><path d="M526,414L504,571L663,566Z" fill="#4791c4" stroke="#4791c4" fill-opacity="1" stroke-opacity="1"/><path d="M526,414L663,566L616,342Z" fill="#469fd3" stroke="#469fd3" fill-opacity="1" stroke-opacity="1"/><path d="M616,342L663,566L782,339Z" fill="#3d9fd4" stroke="#3d9fd4" fill-opacity="1" stroke-opacity="1"/><path d="M782,339L663,566L883,522Z" fill="#2c8ec5" stroke="#2c8ec5" fill-opacity="1" stroke-opacity="1"/><path d="M782,339L883,522L916,360Z" fill="#2d93c9" stroke="#2d93c9" fill-opacity="1" stroke-opacity="1"/><path d="M916,360L883,522L987,564Z" fill="#207eb5" stroke="#207eb5" fill-opacity="1" stroke-opacity="1"/><path d="M916,360L987,564L1090,346Z" fill="#1e83bb" stroke="#1e83bb" fill-opacity="1" stroke-opacity="1"/><path d="M1090,346L987,564L1165,571Z" fill="#166ca4" stroke="#166ca4" fill-opacity="1" stroke-opacity="1"/><path d="M1090,346L1165,571L1255,505Z" fill="#1767a0" stroke="#1767a0" fill-opacity="1" stroke-opacity="1"/><path d="M1090,346L1255,505L1318,342Z" fill="#2271a7" stroke="#2271a7" fill-opacity="1" stroke-opacity="1"/><path d="M1318,342L1255,505L1407,341Z" fill="#22679d" stroke="#22679d" fill-opacity="1" stroke-opacity="1"/><path d="M1407,341L1255,505L1466,527Z" fill="#18578f" stroke="#18578f" fill-opacity="1" stroke-opacity="1"/><path d="M-115,559L-72,808L-67,730Z" fill="#8a96b7" stroke="#8a96b7" fill-opacity="1" stroke-opacity="1"/><path d="M-115,559L-67,730L54,659Z" fill="#8a9ebf" stroke="#8a9ebf" fill-opacity="1" stroke-opacity="1"/><path d="M-115,559L54,659L19,529Z" fill="#8baacc" stroke="#8baacc" fill-opacity="1" stroke-opacity="1"/><path d="M19,529L54,659L198,474Z" fill="#82a8ce" stroke="#82a8ce" fill-opacity="1" stroke-opacity="1"/><path d="M198,474L54,659L259,701Z" fill="#7696be" stroke="#7696be" fill-opacity="1" stroke-opacity="1"/><path d="M198,474L259,701L321,639Z" fill="#6d92bc" stroke="#6d92bc" fill-opacity="1" stroke-opacity="1"/><path d="M198,474L321,639L335,503Z" fill="#6e9ec9" stroke="#6e9ec9" fill-opacity="1" stroke-opacity="1"/><path d="M335,503L321,639L504,571Z" fill="#5d91bf" stroke="#5d91bf" fill-opacity="1" stroke-opacity="1"/><path d="M504,571L321,639L518,617Z" fill="#5285b5" stroke="#5285b5" fill-opacity="1" stroke-opacity="1"/><path d="M504,571L518,617L663,566Z" fill="#4483b6" stroke="#4483b6" fill-opacity="1" stroke-opacity="1"/><path d="M663,566L518,617L619,699Z" fill="#3c78ab" stroke="#3c78ab" fill-opacity="1" stroke-opacity="1"/><path d="M663,566L619,699L666,771Z" fill="#326a9f" stroke="#326a9f" fill-opacity="1" stroke-opacity="1"/><path d="M663,566L666,771L884,695Z" fill="#25659d" stroke="#25659d" fill-opacity="1" stroke-opacity="1"/><path d="M663,566L884,695L883,522Z" fill="#2371a9" stroke="#2371a9" fill-opacity="1" stroke-opacity="1"/><path d="M883,522L884,695L919,623Z" fill="#1b659d" stroke="#1b659d" fill-opacity="1" stroke-opacity="1"/><path d="M883,522L919,623L987,564Z" fill="#1a6ba3" stroke="#1a6ba3" fill-opacity="1" stroke-opacity="1"/><path d="M987,564L919,623L1142,730Z" fill="#10548c" stroke="#10548c" fill-opacity="1" stroke-opacity="1"/><path d="M987,564L1142,730L1165,571Z" fill="#0e4f88" stroke="#0e4f88" fill-opacity="1" stroke-opacity="1"/><path d="M1165,571L1142,730L1241,718Z" fill="#0c3c75" stroke="#0c3c75" fill-opacity="1" stroke-opacity="1"/><path d="M1165,571L1241,718L1255,505Z" fill="#104981" stroke="#104981" fill-opacity="1" stroke-opacity="1"/><path d="M1255,505L1241,718L1409,700Z" fill="#0d3770" stroke="#0d3770" fill-opacity="1" stroke-opacity="1"/><path d="M1255,505L1409,700L1466,527Z" fill="#113d76" stroke="#113d76" fill-opacity="1" stroke-opacity="1"/><path d="M1466,527L1409,700L1450,805Z" fill="#0b225b" stroke="#0b225b" fill-opacity="1" stroke-opacity="1"/><path d="M-67,730L-72,808L61,811Z" fill="#8080a2" stroke="#8080a2" fill-opacity="1" stroke-opacity="1"/><path d="M-67,730L61,811L54,659Z" fill="#7f88ab" stroke="#7f88ab" fill-opacity="1" stroke-opacity="1"/><path d="M54,659L61,811L259,701Z" fill="#7582a9" stroke="#7582a9" fill-opacity="1" stroke-opacity="1"/><path d="M259,701L61,811L200,870Z" fill="#6c6f98" stroke="#6c6f98" fill-opacity="1" stroke-opacity="1"/><path d="M259,701L200,870L430,850Z" fill="#5c6490" stroke="#5c6490" fill-opacity="1" stroke-opacity="1"/><path d="M259,701L430,850L470,801Z" fill="#516392" stroke="#516392" fill-opacity="1" stroke-opacity="1"/><path d="M259,701L470,801L321,639Z" fill="#5a74a2" stroke="#5a74a2" fill-opacity="1" stroke-opacity="1"/><path d="M321,639L470,801L518,617Z" fill="#5075a5" stroke="#5075a5" fill-opacity="1" stroke-opacity="1"/><path d="M518,617L470,801L619,699Z" fill="#406b9d" stroke="#406b9d" fill-opacity="1" stroke-opacity="1"/><path d="M619,699L470,801L666,771Z" fill="#365d91" stroke="#365d91" fill-opacity="1" stroke-opacity="1"/><path d="M884,695L666,771L878,803Z" fill="#194f87" stroke="#194f87" fill-opacity="1" stroke-opacity="1"/><path d="M884,695L878,803L928,848Z" fill="#114179" stroke="#114179" fill-opacity="1" stroke-opacity="1"/><path d="M884,695L928,848L1142,730Z" fill="#0c3e76" stroke="#0c3e76" fill-opacity="1" stroke-opacity="1"/><path d="M884,695L1142,730L919,623Z" fill="#104e86" stroke="#104e86" fill-opacity="1" stroke-opacity="1"/><path d="M1142,730L928,848L1163,777Z" fill="#052f68" stroke="#052f68" fill-opacity="1" stroke-opacity="1"/><path d="M1142,730L1163,777L1241,718Z" fill="#082d67" stroke="#082d67" fill-opacity="1" stroke-opacity="1"/><path d="M1241,718L1163,777L1327,836Z" fill="#062059" stroke="#062059" fill-opacity="1" stroke-opacity="1"/><path d="M1241,718L1327,836L1409,700Z" fill="#071d57" stroke="#071d57" fill-opacity="1" stroke-opacity="1"/><path d="M1409,700L1327,836L1450,805Z" fill="#05104a" stroke="#05104a" fill-opacity="1" stroke-opacity="1"/><path d="M-72,808L200,870L61,811Z" fill="#757395" stroke="#757395" fill-opacity="1" stroke-opacity="1"/><path d="M200,870L1327,836L928,848Z" fill="#134172" stroke="#134172" fill-opacity="1" stroke-opacity="1"/><path d="M200,870L928,848L430,850Z" fill="#3a547f" stroke="#3a547f" fill-opacity="1" stroke-opacity="1"/><path d="M430,850L928,848L666,771Z" fill="#264c80" stroke="#264c80" fill-opacity="1" stroke-opacity="1"/><path d="M430,850L666,771L470,801Z" fill="#3c5688" stroke="#3c5688" fill-opacity="1" stroke-opacity="1"/><path d="M666,771L928,848L878,803Z" fill="#15427b" stroke="#15427b" fill-opacity="1" stroke-opacity="1"/><path d="M928,848L1327,836L1163,777Z" fill="#03225a" stroke="#03225a" fill-opacity="1" stroke-opacity="1"/></g></svg>